<svg width="155" height="52" viewBox="0 0 155 52" fill="none" xmlns="http://www.w3.org/2000/svg">
<g clip-path="url(#clip0_42_491)">
<path fill-rule="evenodd" clip-rule="evenodd" d="M149.484 46.8324L146.408 44.8945C145.598 46.6709 144.14 47.8013 142.197 47.4783C140.253 47.1553 140.577 46.0249 140.739 44.0871L146.893 22.9318H153.696L154.829 19.056H148.027L152.076 4.68336L138.472 9.2051L135.556 19.056H130.536L129.402 22.9318H134.423L128.754 43.4411C127.621 47.1553 128.431 52.0001 136.366 52.0001C142.197 52.0001 146.408 51.0312 149.484 46.8324ZM59.5996 11.7889C60.0854 14.3727 63.8104 15.8261 67.5353 14.8572C71.2603 13.7268 73.528 10.82 72.8797 8.39758C72.0701 5.81376 68.6691 4.36034 64.9441 5.32928C61.2192 6.29823 58.6278 9.20503 59.5996 11.7889ZM103.327 48.6087C97.9832 48.6087 96.2014 41.1802 98.793 33.9131C101.06 26.8075 107.214 21.4783 111.749 21.4783C117.741 21.1553 117.904 30.1988 115.636 36.174C113.693 41.8261 109.967 48.6087 103.327 48.6087ZM128.917 32.4597C129.402 23.4163 123.247 18.0871 111.749 18.5715C103.489 18.8945 95.3917 22.6087 90.8568 28.2609C87.78 32.2982 85.9982 37.6274 87.1318 42.4721C88.5898 48.1243 93.9337 51.8386 104.137 51.8386C115.636 51.6771 127.782 44.2485 128.917 32.4597ZM53.6072 22.9318H56.5225L49.7203 46.9939H43.566L42.4324 50.8697H85.6745L86.808 46.9939H80.6536L93.1246 4.36035H75.309L74.1755 8.23609H79.5201L68.831 46.8324H62.1909L69.9647 18.8945H55.2268L53.6072 22.9318Z" fill="white"/>
<path fill-rule="evenodd" clip-rule="evenodd" d="M44.6995 17.6026C43.4038 22.4473 40.6506 25.1926 37.5735 26.969C33.5246 29.3914 28.8279 29.3914 26.0747 29.0684L31.9051 8.23609C34.1724 7.91311 38.8691 7.91311 41.9463 9.85105C44.3756 11.3045 45.8332 13.5653 44.6995 17.6026ZM18.9488 8.39765L8.09774 46.8324H1.13369L0 50.7082H26.8845L28.0182 46.8324H21.2161L25.103 32.7827C34.6584 32.9442 41.1366 31.8138 45.9952 29.7144C50.6919 27.615 53.4452 24.8697 55.0647 21.8013C56.0364 20.0249 56.6842 17.9256 57.0081 15.6647C57.1701 13.8883 57.0081 12.2734 56.1984 10.82C54.5788 8.0746 52.3114 6.45973 49.2343 5.65228C45.5094 4.52184 40.8127 4.36035 35.4681 4.36035H12.9564L11.8227 8.39765H18.9488Z" fill="white"/>
<path fill-rule="evenodd" clip-rule="evenodd" d="M112.235 7.59005C112.235 3.3913 108.834 0 104.623 0C100.413 0 97.0112 3.3913 97.0112 7.59005C97.0112 11.7888 100.413 15.1801 104.623 15.1801C108.834 15.1801 112.235 11.7888 112.235 7.59005ZM110.939 7.59005C110.939 11.1428 108.024 13.8882 104.623 13.8882C101.06 13.8882 98.307 10.9813 98.307 7.59005C98.307 4.03723 101.06 1.29189 104.623 1.29189C108.186 1.29189 110.939 4.03723 110.939 7.59005ZM102.68 4.68321H104.785C105.595 4.68321 106.242 5.16768 106.242 5.81364C106.242 6.62109 105.595 7.10557 104.623 7.10557H102.68V4.68321ZM101.384 11.7888H102.68V8.23601H103.489C104.461 8.23601 104.947 8.55898 105.919 10.3354L106.567 11.6273H108.186L107.214 10.0124C106.567 8.88196 106.081 8.23601 105.271 7.91303C106.728 7.91303 107.7 7.10557 107.7 5.81365C107.7 4.8447 107.052 3.71427 104.947 3.71427H101.384V11.7888Z" fill="white"/>
</g>
<defs>
<clipPath id="clip0_42_491">
<rect width="155" height="52" fill="white"/>
</clipPath>
</defs>
</svg>
